<svg xmlns="http://www.w3.org/2000/svg" viewBox="0 0 1721.96 518.79"><defs><style>.cls-1{fill:#4f6466;}.cls-1,.cls-2{fill-rule:evenodd;}.cls-2{fill:#22c7b8;}.cls-3{isolation:isolate;font-size:343.07px;fill:#fff;font-family:BerlinSansFB-Bold, Berlin Sans FB;font-weight:700;}</style></defs><g id="Capa_2" data-name="Capa 2"><g id="Capa_1-2" data-name="Capa 1"><g id="Capa_2-2" data-name="Capa 2"><g id="Capa_1-2-2" data-name="Capa 1-2"><path class="cls-1" d="M118.3,42.17C23.94,101.86-20.53,217.28,9.08,325.9,47.85,464.53,196.71,547.17,341.35,509.81c113.12-26.8,195-126.07,201.15-243.59-18.61,97-91.47,174-186.24,196.9C219.74,497.46,79.32,419.92,42.61,288.49,17.93,198.46,47.49,102.15,118.3,42.17Z"/><path class="cls-2" d="M421.36,402.22c79.34-50.3,116.77-147.43,92-238.93C480.59,45.77,355.08-23.88,232.91,7.54,137.63,30.3,68.68,114.21,63.74,213.39c15.43-81.57,76.41-146.51,156-166.06,116.06-30.21,234.47,36,265.43,146.85C506,270.21,481.05,351.58,421.36,402.22Z"/><path class="cls-1" d="M166.78,278.57h0l19.44-68.63h16.92L237,330l12.85-44.79,8-6.33h32.5l19.44-68.63h16.91l19.44,68.63h56.2A134,134,0,0,0,408.71,240c0-49.76-40.11-89.94-89.16-89.75-25,.28-48.64,10.8-64.79,28.85-16.45-18.14-40.4-28.66-65.66-28.85-49,0-88.85,40-89.32,89.75a134,134,0,0,0,6.59,38.43Z"/><path class="cls-2" d="M339.4,295.35h56.09c-37.74,78.22-140.73,128.51-140.73,128.51s-103.71-50.29-141.3-128.51h59.9l8.64-5.83,12.86-45.29,33.83,120.1h16.92l19.64-69.66H297l8.48-5.83,12.34-45.29,12.86,45.29Z"/><text class="cls-3" transform="translate(610.68 369.83) scale(0.98 1)">Health</text></g></g></g></g></svg>