<svg xmlns="http://www.w3.org/2000/svg" viewBox="0 0 115.18 30.24"><defs><style>.cls-1{fill:#4f6466;}.cls-1,.cls-2{fill-rule:evenodd;}.cls-2{fill:#22c7b8;}.cls-3{font-size:20px;fill:#fff;font-family:BerlinSansFBDemi-Bold, Berlin Sans FB Demi;font-weight:700;}</style></defs><g id="Capa_2" data-name="Capa 2"><g id="katman_1" data-name="katman 1"><path class="cls-1" d="M7,2.46A14.84,14.84,0,0,0,.55,19C2.84,27.08,11.64,31.9,20.19,29.72a15.42,15.42,0,0,0,11.89-14.2A14.69,14.69,0,0,1,21.07,27C13,29,4.7,24.48,2.53,16.82A13.87,13.87,0,0,1,7,2.46Z"/><path class="cls-2" d="M24.92,23.45A12.53,12.53,0,0,0,30.36,9.52C28.42,2.67,21-1.39,13.78.44a13,13,0,0,0-10,12A12.35,12.35,0,0,1,13,2.76C19.86,1,26.86,4.86,28.69,11.32a11.73,11.73,0,0,1-3.77,12.13Z"/><path class="cls-1" d="M9.87,16.24h0l1.15-4h1l2,7,.76-2.61.47-.37h1.92l1.15-4h1l1.15,4h3.32A7.66,7.66,0,0,0,24.17,14a5.25,5.25,0,0,0-9.1-3.55,5.33,5.33,0,0,0-3.88-1.68A5.28,5.28,0,0,0,5.91,14a7.69,7.69,0,0,0,.39,2.24Z"/><path class="cls-2" d="M20.07,17.22h3.32c-2.23,4.56-8.32,7.49-8.32,7.49s-6.13-2.93-8.35-7.49h3.54l.51-.34.76-2.64,2,7h1l1.16-4.06h1.88l.5-.34.73-2.64.76,2.64Z"/><text class="cls-3" transform="translate(36.11 21.56)">Health</text></g></g></svg>