<svg xmlns="http://www.w3.org/2000/svg" viewBox="0 0 674.39 228.37"><defs><style>.cls-1{fill:#4f6466;}.cls-1,.cls-2{fill-rule:evenodd;}.cls-2{fill:#22c7b8;}.cls-3{isolation:isolate;font-size:151.01px;fill:#fff;font-family:BerlinSansFB-Bold, Berlin Sans FB;font-weight:700;}</style></defs><g id="Capa_2" data-name="Capa 2"><g id="Capa_1-2" data-name="Capa 1"><g id="Capa_2-2" data-name="Capa 2"><g id="Capa_1-2-2" data-name="Capa 1-2"><path class="cls-1" d="M46.33,18.56C9.38,44.84-8,95.64,3.56,143.46c15.18,61,73.48,97.4,130.13,80.95,44.3-11.79,76.38-55.5,78.77-107.23-7.28,42.7-35.82,76.59-72.93,86.68C86.06,219,31.07,184.84,16.69,127,7,87.36,18.6,45,46.33,18.56Z"/><path class="cls-2" d="M165,177.05c31.07-22.14,45.73-64.9,36-105.17-12.85-51.73-62-82.39-109.85-68.56C53.9,13.34,26.9,50.27,25,93.93c6-35.9,29.93-64.49,61.1-73.1C131.51,7.54,177.89,36.7,190,85.47,198.17,118.94,188.4,154.76,165,177.05Z"/><path class="cls-1" d="M65.32,122.62h0l7.61-30.21h6.63l13.25,52.87,5-19.72,3.12-2.79h12.73l7.61-30.21h6.63l7.61,30.21h22a65.53,65.53,0,0,0,2.52-17.13c0-21.9-15.71-39.59-34.92-39.5a33,33,0,0,0-25.38,12.7,33.41,33.41,0,0,0-25.71-12.7c-19.19,0-34.8,17.62-35,39.5a65.78,65.78,0,0,0,2.58,16.92Z"/><path class="cls-2" d="M132.92,130h22c-14.78,34.43-55.12,56.57-55.12,56.57S59.16,164.44,44.44,130H67.9l3.38-2.57,5-19.93,13.25,52.86h6.63l7.69-30.66h12.45l3.32-2.57,4.83-19.93,5,19.93Z"/><text class="cls-3" transform="translate(239.17 162.79) scale(0.87 1)">Health</text></g></g></g></g></svg>