<svg xmlns="http://www.w3.org/2000/svg" viewBox="0 0 335.57 106.65"><defs><style>.cls-1{fill:#4f6466;}.cls-1,.cls-2{fill-rule:evenodd;}.cls-2{fill:#f6f6f6;}.cls-3{isolation:isolate;font-size:70.53px;fill:#fff;font-family:BerlinSansFB-Bold, Berlin Sans FB;font-weight:700;}</style></defs><g id="Capa_2" data-name="Capa 2"><g id="Capa_1-2" data-name="Capa 1"><path class="cls-1" d="M23,8.67C4.65,20.94-4,44.67,1.76,67c7.54,28.5,36.49,45.49,64.62,37.81,22-5.51,37.93-25.92,39.12-50.08C101.88,74.67,87.71,90.5,69.28,95.21c-26.55,7.06-53.86-8.88-61-35.9C3.48,40.8,9.23,21,23,8.67Z"/><path class="cls-2" d="M81.94,82.69c15.43-10.34,22.71-30.31,17.9-49.12C93.46,9.41,69.05-4.91,45.29,1.55,26.76,6.23,13.35,23.48,12.39,43.87c3-16.77,14.86-30.12,30.34-34.14,22.57-6.21,45.6,7.41,51.62,30.19C98.4,55.55,93.55,72.28,81.94,82.69Z"/><path class="cls-1" d="M32.43,57.27h0l3.78-14.11H39.5l6.58,24.69,2.5-9.21,1.55-1.3h6.32l3.78-14.11h3.29L67.3,57.34H78.23a29,29,0,0,0,1.25-8c0-10.23-7.8-18.49-17.34-18.45a16.76,16.76,0,0,0-12.6,5.93,17,17,0,0,0-12.77-5.93c-9.53,0-17.28,8.23-17.37,18.45a28.94,28.94,0,0,0,1.28,7.9Z"/><path class="cls-2" d="M66,60.72H76.91C69.57,76.8,49.54,87.14,49.54,87.14S29.37,76.8,22.06,60.72H33.71l1.68-1.2,2.5-9.31L44.47,74.9h3.29l3.82-14.32h6.18l1.65-1.2,2.4-9.31,2.5,9.31Z"/><text class="cls-3" transform="translate(118.76 76.03) scale(0.93 1)">Health</text></g></g></svg>