<?xml version="1.0" encoding="utf-8"?>
<!-- Generator: Adobe Illustrator 27.5.0, SVG Export Plug-In . SVG Version: 6.00 Build 0)  -->
<svg version="1.1" xmlns="http://www.w3.org/2000/svg" xmlns:xlink="http://www.w3.org/1999/xlink" x="0px" y="0px"
	 viewBox="0 0 500 500" style="enable-background:new 0 0 500 500;" xml:space="preserve">
<g id="BACKGROUND">
	<rect style="fill:#FFFFFF;" width="500" height="500"/>
</g>
<g id="OBJECTS">
	<g>
		<g style="opacity:0.3;">
			<path style="fill:#45C0D0;" d="M89.458,379.657c-8.571-0.175-16.962-1.69-24.97-5.534c-10.162-4.878-18.694-13.491-22.478-24.109
				c-8.071-22.647,5.515-45.282,7.786-67.643c2.645-26.036-13.93-48.198-13.203-73.844c0.687-24.253,10.873-47.454,27.151-65.316
				c17.702-19.425,42.872-31.866,69.055-34.134c35.897-3.109,69.644,7.323,101.018-15.847C252,79.801,268.519,63.164,289.771,55.47
				c17.033-6.167,36.531-5.858,52.917,1.864c16.386,7.723,29.255,23.029,33.002,40.753c5.823,27.546-9.383,58.799,4.686,83.186
				c15.282,26.489,54.347,26.73,76.903,47.381c16.927,15.497,21.945,41.483,15.345,63.463
				c-7.847,26.134-29.523,45.689-53.613,57.052c-22.451,10.591-47.256,15.051-71.853,18.389
				c-49.122,6.667-98.902,9.41-148.458,7.785c-15.683-0.514-31.921-4.978-47.539-3.878
				C131.415,372.857,109.924,380.076,89.458,379.657z"/>
		</g>
		<g>
			<defs>
				<path id="SVGID_1_" d="M89.458,379.657c-8.571-0.175-16.962-1.69-24.97-5.534c-10.162-4.878-18.694-13.491-22.478-24.109
					c-8.071-22.647,5.515-45.282,7.786-67.643c2.645-26.036-13.93-48.198-13.203-73.844c0.687-24.253,10.873-47.454,27.151-65.316
					c17.702-19.425,42.872-31.866,69.055-34.134c35.897-3.109,69.644,7.323,101.018-15.847C252,79.801,268.519,63.164,289.771,55.47
					c17.033-6.167,36.531-5.858,52.917,1.864c16.386,7.723,29.255,23.029,33.002,40.753c5.823,27.546-9.383,58.799,4.686,83.186
					c15.282,26.489,54.347,26.73,76.903,47.381c16.927,15.497,21.945,41.483,15.345,63.463
					c-7.847,26.134-29.523,45.689-53.613,57.052c-22.451,10.591-47.256,15.051-71.853,18.389
					c-49.122,6.667-98.902,9.41-148.458,7.785c-15.683-0.514-31.921-4.978-47.539-3.878
					C131.415,372.857,109.924,380.076,89.458,379.657z"/>
			</defs>
			<clipPath id="SVGID_00000057140717296165068430000000627113518395270026_">
				<use xlink:href="#SVGID_1_"  style="overflow:visible;"/>
			</clipPath>
			<g style="clip-path:url(#SVGID_00000057140717296165068430000000627113518395270026_);">
				<g style="opacity:0.5;">
					<g>
						<rect x="109.049" y="101.234" style="fill:#FFFFFF;" width="87.834" height="23.841"/>
					</g>
					<g>
						<rect x="109.049" y="135.36" style="fill:#FFFFFF;" width="87.834" height="258.397"/>
					</g>
				</g>
				<g style="opacity:0.5;">
					<g>
						<rect x="211.927" y="101.234" style="fill:#FFFFFF;" width="87.833" height="23.841"/>
					</g>
					<g>
						<rect x="211.927" y="135.36" style="fill:#FFFFFF;" width="87.833" height="258.397"/>
					</g>
				</g>
				<g style="opacity:0.5;">
					<g>
						<rect x="314.805" y="101.234" style="fill:#FFFFFF;" width="87.833" height="23.841"/>
					</g>
					<g>
						<rect x="314.805" y="135.36" style="fill:#FFFFFF;" width="87.833" height="258.397"/>
					</g>
				</g>
				<g style="opacity:0.5;">
					<rect x="83.241" y="196.66" style="fill:#FFFFFF;" width="92.675" height="197.096"/>
				</g>
				<g style="opacity:0.5;">
					<rect x="109.018" y="196.66" style="fill:#ADCAFF;" width="66.898" height="197.096"/>
				</g>
			</g>
		</g>
	</g>
	<g style="opacity:0.1;">
		<ellipse cx="250" cy="405.789" rx="195.336" ry="9.211"/>
	</g>
	<g>
		<g>
			<g>
				<path style="fill:#FFFFFF;" d="M290.739,145.351c-3.31,0-6.004-2.693-6.004-6.003c0-3.311,2.693-6.003,6.004-6.003
					c3.311,0,6.005,2.693,6.005,6.003C296.744,142.658,294.05,145.351,290.739,145.351z M290.739,136.714
					c-1.452,0-2.633,1.182-2.633,2.633c0,1.452,1.181,2.633,2.633,2.633c1.452,0,2.634-1.182,2.634-2.633
					C293.373,137.895,292.191,136.714,290.739,136.714z"/>
			</g>
			<g>
				<path style="fill:#8CB5FF;" d="M290.809,145.878h-16.643c-0.698,0-1.264-0.566-1.264-1.264c0-0.698,0.565-1.264,1.264-1.264
					h15.38v-9.209c0-0.698,0.565-1.264,1.264-1.264c0.698,0,1.264,0.566,1.264,1.264v10.474
					C292.073,145.312,291.508,145.878,290.809,145.878z"/>
			</g>
			<g>
				<path style="fill:#8CB5FF;" d="M291.98,406.81c-0.931,0-1.685-0.755-1.685-1.686v-0.961c0-8.894-7.235-16.129-16.129-16.129
					c-8.894,0-16.129,7.235-16.129,16.129v0.961c0,0.931-0.754,1.686-1.685,1.686c-0.931,0-1.685-0.755-1.685-1.686v-0.961
					c0-10.752,8.747-19.5,19.499-19.5c10.752,0,19.5,8.748,19.5,19.5v0.961C293.666,406.055,292.911,406.81,291.98,406.81z"/>
			</g>
			<g>
				<path style="fill:#8CB5FF;" d="M274.166,406.81c-0.931,0-1.686-0.755-1.686-1.686V134.14c0-0.931,0.755-1.685,1.686-1.685
					c0.931,0,1.685,0.754,1.685,1.685v270.984C275.851,406.055,275.096,406.81,274.166,406.81z"/>
			</g>
			<g>
				<path style="fill:#FFFFFF;" d="M284.49,177.669h12.64c3.258,0,5.898-2.641,5.898-5.898v-27.578c0-3.258-2.641-5.898-5.898-5.898
					h-12.64c-3.258,0-5.898,2.641-5.898,5.898v27.578C278.591,175.028,281.232,177.669,284.49,177.669z"/>
			</g>
			<g>
				<path style="fill:#FD6E90;" d="M300.315,162.617v7.9c0,2.534-2.054,4.589-4.589,4.589h-9.833c-2.534,0-4.589-2.054-4.589-4.589
					v-7.9H300.315z"/>
			</g>
			<g>
				<rect x="290.388" y="177.669" style="fill:#FFFFFF;" width="0.842" height="74.309"/>
			</g>
		</g>
		<g>
			<g>
				<path style="fill:#00A9BF;" d="M264.939,229.171l-0.898,0.532c-2.783,1.648-4.977-0.247-6.626-3.042l-16.218-24.148
					c-1.649-2.795-0.73-6.397,2.054-8.046l0.898-0.532c2.783-1.649,6.376-0.719,8.025,2.076l13.298,25.877
					C267.122,224.682,267.722,227.522,264.939,229.171z"/>
			</g>
			<g>
				<polygon style="fill:#00A9BF;" points="300.315,228.069 299.202,234.331 262.111,230.313 262.266,219.652 				"/>
			</g>
			<g>
				<path style="fill:#EBAEAE;" d="M298.471,234.229c-0.056,0.3,2.112,1.416,2.389,1.554c1.353,0.674,2.906,0.868,4.399,0.782
					c2.095-0.121,4.34-0.629,6.256-1.491c0.967-0.435,1.889-0.971,2.736-1.611c0.438-0.331,0.856-0.689,1.249-1.073
					c0.004-0.003,0.007-0.007,0.011-0.01c0.492-0.487,0.303-1.328-0.329-1.613c-0.309-0.139-0.57-0.263-0.652-0.294
					c-1.078-0.405-2.127-0.827-3.234-1.129c-3.309-0.902-7.955-3.198-11.26-1.336C299.385,230.813,299.121,231.424,298.471,234.229z
					"/>
			</g>
		</g>
		<g>
			<g>
				<g>
					<polygon style="fill:#EBAEAE;" points="235.275,384.708 232.918,399.397 226.475,378.664 					"/>
				</g>
				<g>
					<path style="fill:#EBAEAE;" d="M225.77,380.993c3.162,1.731,6.342,1.984,9.505,3.715c0.935-1.642,2.765-5.037,4.791-9.03
						c-3.169-1.574-6.003-3.078-9.137-4.721C228.974,374.186,227.306,377.543,225.77,380.993z"/>
				</g>
			</g>
			<g>
				<rect x="220.745" y="378.251" style="fill:#EBAEAE;" width="10.663" height="11.765"/>
			</g>
			<g>
				<path style="fill:#45C0D0;" d="M244.719,400.773v4.243h-12.872c-0.221-0.6-4.552-2.294-4.773-2.895c0,0-1.664,2.294-1.789,2.895
					h-3.113l-1.465-15l12.615,3.031l3.573,5.551L244.719,400.773z"/>
			</g>
			<g>
				<polygon style="fill:#EBAEAE;" points="231.371,390.016 236.895,398.599 221.04,393.427 220.707,390.016 				"/>
			</g>
			<g>
				<path style="fill:#00A9BF;" d="M248.197,329.771c0.492,0.39,1.248,0.043,1.755,0.004c6.286-0.479,7.252-4.898,7.831-10.996
					c1.577-16.323-0.418-51.667-0.834-64.769c0,0-4.049-1.655-9.759-5.46c-0.461-0.307-1.293,0.196-1.771,0.285
					c-5.925,1.1-9.163,4.502-9.561,11.056c2.084,15.514,5.854,43.976,5.8,56.54C241.605,328.996,242.098,324.934,248.197,329.771z"
					/>
			</g>
			<g>
				<path style="fill:#00A9BF;" d="M228.938,374.319c3.152,1.651,6.11,3.322,9.229,5.036c12.743-24.719,16.825-31.467,19.593-60.297
					c-5.312-0.614-10.747-0.606-16.09-0.926C240.858,343.833,237.172,355.406,228.938,374.319z"/>
			</g>
			<g>
				<g>
					<path style="fill:#005875;" d="M213.283,193.935c-0.689,0.217-1.363,0.564-2.018,1.083L213.283,193.935z"/>
				</g>
				<g>
					<path style="fill:#7193CF;" d="M246.727,156.155c0.051-5.522-1.436-11.222-6.223-14.136c-5.396-3.284-12.814-2.181-18.42,0.024
						c-3.488,1.372-6.843,3.355-9.291,6.042c-2.172,2.384-3.615,5.456-3.336,8.55c0.202,2.238,1.604,4.728,0.904,6.961
						c-0.618,1.973-2.809,3.077-3.774,4.869c-0.92,1.708-0.539,3.928,0.909,5.296c1.78,1.681,4.643,1.915,6.752,3.24
						c1.723,1.083,2.856,2.914,2.985,4.823c0.134,1.991-0.759,3.941-0.7,5.935c0.016,0.524,0.157,1.128,0.667,1.365
						c0.293,0.136,0.641,0.115,0.967,0.079c4.225-0.464,8.362-2.894,12.451-1.817c0.893,0.235,1.763,0.637,2.693,0.608
						c1.245-0.039,2.206-0.761,3.073-1.501c0.327-0.279,0.967-0.746,1.151-1.118c0.686-1.393,0.274-2.008,1.687-3.134
						c1.239-0.987,2.743-1.718,3.614-3.044c1.394-2.121,0.469-4.436,0.666-6.708c0.235-2.712,1.334-5.287,2.047-7.908
						C246.209,162.151,246.699,159.18,246.727,156.155z"/>
				</g>
			</g>
			<g>
				<path style="fill:#45C0D0;" d="M219.814,247.495l34.131-3.658c0,0-1.286-53.109-1.294-53.177
					c-0.56-5.258-4.171-7.882-8.825-9.107c-2.407-0.634-4.885-0.937-7.333-1.354c-1.214-0.207-5.828-1.912-6.736-1.468
					c0,0-3.617,1.768-3.617,1.768c-3.135,1.533-6.296,2.863-9.535,4.164c-4.513,1.813-7.987,5.33-7.432,10.551L219.814,247.495z"/>
			</g>
			<g>
				<path style="fill:#45C0D0;" d="M231.005,209.412l18.634-1.997c4.071-0.436,6.803-4.404,5.77-8.38l-2.998-9.804l-23.194,3.379
					L231.005,209.412z"/>
			</g>
			<g>
				<path style="fill:#45C0D0;" d="M227.856,272.166l29.093-18.156l-3.004-14.691c0,0-34.964,1.392-35.007,1.392
					c-1.3,0-5.3,15.154-5.265,16.859C213.798,263.694,221.519,272.166,227.856,272.166z"/>
			</g>
			<g>
				<path style="fill:#45C0D0;" d="M225.3,325.603h1.796c5.564,0,7.157-4.731,7.157-10.315l2.918-49.976
					c0-5.584-4.511-10.111-10.075-10.111H225.3c-5.564,0-11.59-1.057-11.59,4.527l4.433,55.561
					C218.143,320.872,219.736,325.603,225.3,325.603z"/>
			</g>
			<g>
				<polygon style="fill:#45C0D0;" points="220.745,382.467 231.409,382.467 234.253,315.288 218.143,315.288 				"/>
			</g>
			<g>
				<path style="fill:#EBAEAE;" d="M230.465,184.438L230.465,184.438c2.763-0.296,4.763-2.775,4.469-5.538l-1.229-11.545
					l-10.01,1.073l1.228,11.537C225.218,182.731,227.7,184.734,230.465,184.438z"/>
			</g>
			<g>
				<path style="fill:#FD6E90;" d="M223.401,165.664l10.01-1.073l1.37,12.873c-4.544-0.258-9.227-3.136-10.574-7.402
					c-0.305-0.968-0.509-1.966-0.655-2.978L223.401,165.664z"/>
			</g>
			<g>
				<path style="fill:#EBAEAE;" d="M236.641,174.156c0.78-0.291,1.502-0.723,2.127-1.33c2.006-1.952,2.687-5.025,2.714-7.735
					c0.014-1.43-2.168-21.08-2.146-21.082c0,0-19.873,2.13-19.873,2.13c0.383,3.602,0.766,7.203,1.15,10.805
					c0.365,3.429,0.234,7.085,1.279,10.395C223.666,172.958,231.231,176.174,236.641,174.156z"/>
			</g>
			<g>
				<path style="fill:#FD6E90;" d="M236.208,163.607c-0.144,0-0.274-0.098-0.31-0.244l-0.261-1.083
					c-0.022-0.092-0.002-0.189,0.055-0.266c0.057-0.076,0.145-0.123,0.239-0.128l1.448-0.074l-2.632-4.492
					c-0.089-0.152-0.038-0.347,0.114-0.436c0.154-0.089,0.348-0.038,0.436,0.114l2.898,4.944c0.056,0.096,0.059,0.214,0.005,0.313
					c-0.053,0.098-0.153,0.161-0.264,0.167l-1.588,0.081l0.171,0.71c0.041,0.171-0.064,0.343-0.235,0.385
					C236.259,163.604,236.233,163.607,236.208,163.607z"/>
			</g>
			<g>
				<path style="fill:#7193CF;" d="M216.049,169.718c-0.141-0.375-0.255-0.76-0.345-1.126c-1.506-6.117-2.937-12.91,0.061-18.446
					c1.475-2.723,3.885-4.817,6.428-6.576c2.996-2.072,18.69-2.174,19.341,0.529c1.542,13.061-11.861,2.115-16.093,5.335
					c-5.6,4.26,5.031,12.961-5.978,12.101C218.456,161.456,217.056,169.337,216.049,169.718z"/>
			</g>
			<g>
				<path style="fill:#EBAEAE;" d="M233.055,193.961c0.627-4.659,1.892-9.282,3.325-13.787c-1.353-0.276-5.74-1.876-6.624-1.445
					c0,0-3.617,1.768-3.617,1.768c-0.646,0.316-1.295,0.619-1.943,0.919C226.878,185.782,229.837,189.975,233.055,193.961z"/>
			</g>
			<g>
				<path style="fill:#00A9BF;" d="M232.14,220.375c-1.906-8.526-10.245-27.003-11.572-26.787c0.536,9.52,2.042,18.984,4.486,28.2
					c0.597,2.251,1.293,4.57,2.839,6.312c1.645,1.855,4.043,2.824,6.35,3.732c6.495,2.556,13.066,5.036,19.595,7.558
					C253.801,237.896,243.189,227.602,232.14,220.375z"/>
			</g>
		</g>
		<g>
			<g>
				<g>
					<g>
						<path style="fill:#ADCAFF;" d="M207.221,386.642c-1.272,0-2.444-0.833-2.819-2.115l-8.842-30.258
							c-0.078-0.268-0.118-0.545-0.118-0.824v-49.259c0-1.623,1.315-2.938,2.938-2.938c1.623,0,2.939,1.315,2.939,2.938v48.838
							l8.724,29.854c0.455,1.558-0.439,3.19-1.996,3.645C207.771,386.603,207.493,386.642,207.221,386.642z"/>
					</g>
				</g>
				<g>
					<g>
						<path style="fill:#8CB5FF;" d="M99.408,386.642c-0.273,0-0.55-0.038-0.826-0.119c-1.558-0.455-2.452-2.087-1.997-3.645
							l8.724-29.854v-48.838c0-1.623,1.315-2.938,2.938-2.938c1.623,0,2.938,1.315,2.938,2.938v49.259
							c0,0.279-0.04,0.557-0.118,0.824l-8.842,30.258C101.852,385.809,100.68,386.642,99.408,386.642z"/>
					</g>
				</g>
				<g>
					<path style="fill:#ADCAFF;" d="M197.539,355.531h-86.968c-1.623,0-2.938-1.316-2.938-2.939c0-1.623,1.315-2.939,2.938-2.939
						h86.968c1.623,0,2.938,1.315,2.938,2.939C200.477,354.216,199.162,355.531,197.539,355.531z"/>
				</g>
				<g>
					
						<path style="fill:none;stroke:#ADCAFF;stroke-width:5.8772;stroke-linecap:round;stroke-linejoin:round;stroke-miterlimit:10;" d="
						M198.339,353.057"/>
				</g>
				<g>
					<g>
						<path style="fill:#7193CF;" d="M205.667,400.001L205.667,400.001c-2.482,0-4.494-2.012-4.494-4.494v-11.605h8.988v11.605
							C210.161,397.989,208.149,400.001,205.667,400.001z"/>
					</g>
					<g>
						<path style="fill:#7193CF;" d="M210.779,388.503c0,2.935,2.23,13.949,0.103,18.25c0,0-4.409,0-6.599,0
							c-5.125,0-9.28-4.155-9.28-9.28s4.155-9.28,9.28-9.28S210.779,388.503,210.779,388.503z"/>
					</g>
					<g>
						<circle style="fill:#ADCAFF;" cx="210.161" cy="397.473" r="9.28"/>
					</g>
					<g>
						<path style="fill:#8CB5FF;" d="M210.161,400.001L210.161,400.001c-2.482,0-4.494-2.012-4.494-4.494v-11.605h8.988v11.605
							C214.655,397.989,212.643,400.001,210.161,400.001z"/>
					</g>
				</g>
				<g>
					<g>
						<g>
							<path style="fill:#7193CF;" d="M97.85,400.001L97.85,400.001c-2.482,0-4.494-2.012-4.494-4.494v-11.605h8.988v11.605
								C102.344,397.989,100.332,400.001,97.85,400.001z"/>
						</g>
						<g>
							<path style="fill:#ADCAFF;" d="M102.963,388.503c0,2.935,2.23,13.949,0.103,18.25c0,0-4.409,0-6.599,0
								c-5.125,0-9.28-4.155-9.28-9.28s4.155-9.28,9.28-9.28S102.963,388.503,102.963,388.503z"/>
						</g>
						<g>
							<circle style="fill:#7193CF;" cx="102.344" cy="397.473" r="9.28"/>
						</g>
						<g>
							<path style="fill:#ADCAFF;" d="M102.344,400.001L102.344,400.001c-2.482,0-4.494-2.012-4.494-4.494v-11.605h8.988v11.605
								C106.839,397.989,104.826,400.001,102.344,400.001z"/>
						</g>
					</g>
					<g>
						<rect x="93.356" y="381.521" style="fill:#ADCAFF;" width="13.482" height="2.909"/>
					</g>
				</g>
				<g>
					<rect x="201.173" y="381.521" style="fill:#8CB5FF;" width="13.482" height="2.909"/>
				</g>
			</g>
			<g>
				<g>
					<g>
						<path style="fill:#ADCAFF;" d="M417.171,386.773c-1.272,0-2.445-0.833-2.819-2.115L405.51,354.4
							c-0.078-0.268-0.118-0.545-0.118-0.824v-49.259c0-1.623,1.315-2.939,2.938-2.939c1.623,0,2.938,1.315,2.938,2.939v48.838
							l8.724,29.854c0.455,1.558-0.439,3.189-1.996,3.645C417.721,386.735,417.443,386.773,417.171,386.773z"/>
					</g>
				</g>
				<g>
					<g>
						<path style="fill:#8CB5FF;" d="M309.356,386.773c-0.272,0-0.55-0.038-0.825-0.119c-1.558-0.455-2.451-2.087-1.996-3.645
							l8.725-29.854v-48.838c0-1.623,1.315-2.939,2.939-2.939c1.623,0,2.939,1.315,2.939,2.939v49.259
							c0,0.279-0.04,0.557-0.118,0.824l-8.843,30.258C311.802,385.94,310.629,386.773,309.356,386.773z"/>
					</g>
				</g>
				<g>
					<path style="fill:#ADCAFF;" d="M407.489,355.663H320.52c-1.623,0-2.939-1.315-2.939-2.938c0-1.623,1.315-2.939,2.939-2.939
						h86.969c1.623,0,2.939,1.315,2.939,2.939C410.428,354.348,409.112,355.663,407.489,355.663z"/>
				</g>
				<g>
					
						<path style="fill:none;stroke:#ADCAFF;stroke-width:5.8772;stroke-linecap:round;stroke-linejoin:round;stroke-miterlimit:10;" d="
						M408.289,353.188"/>
				</g>
				<g>
					<g>
						<path style="fill:#7193CF;" d="M415.617,400.133L415.617,400.133c-2.482,0-4.494-2.012-4.494-4.494v-11.605h8.988v11.605
							C420.111,398.121,418.099,400.133,415.617,400.133z"/>
					</g>
					<g>
						<path style="fill:#7193CF;" d="M420.729,388.634c0,2.935,2.23,13.949,0.103,18.25c0,0-4.409,0-6.599,0
							c-5.125,0-9.28-4.155-9.28-9.28s4.155-9.28,9.28-9.28S420.729,388.634,420.729,388.634z"/>
					</g>
					<g>
						<circle style="fill:#ADCAFF;" cx="420.111" cy="397.605" r="9.28"/>
					</g>
					<g>
						<path style="fill:#8CB5FF;" d="M420.111,400.133L420.111,400.133c-2.482,0-4.494-2.012-4.494-4.494v-11.605h8.988v11.605
							C424.605,398.121,422.593,400.133,420.111,400.133z"/>
					</g>
				</g>
				<g>
					<g>
						<g>
							<path style="fill:#7193CF;" d="M307.8,400.133L307.8,400.133c-2.482,0-4.494-2.012-4.494-4.494v-11.605h8.988v11.605
								C312.294,398.121,310.282,400.133,307.8,400.133z"/>
						</g>
						<g>
							<path style="fill:#ADCAFF;" d="M312.913,388.634c0,2.935,2.23,13.949,0.103,18.25c0,0-4.409,0-6.599,0
								c-5.125,0-9.28-4.155-9.28-9.28s4.155-9.28,9.28-9.28S312.913,388.634,312.913,388.634z"/>
						</g>
						<g>
							<circle style="fill:#7193CF;" cx="312.294" cy="397.605" r="9.28"/>
						</g>
						<g>
							<path style="fill:#ADCAFF;" d="M312.294,400.133L312.294,400.133c-2.482,0-4.494-2.012-4.494-4.494v-11.605h8.988v11.605
								C316.788,398.121,314.776,400.133,312.294,400.133z"/>
						</g>
					</g>
					<g>
						<rect x="303.306" y="381.653" style="fill:#ADCAFF;" width="13.482" height="2.909"/>
					</g>
				</g>
				<g>
					<rect x="411.123" y="381.653" style="fill:#8CB5FF;" width="13.482" height="2.909"/>
				</g>
			</g>
			<g>
				<g>
					<g>
						<path style="fill:#ADCAFF;" d="M412.93,304.317H287.968v-67.948H412.93V304.317z M295.083,297.203h110.733v-53.719H295.083
							V297.203z"/>
					</g>
				</g>
				<g>
					<g>
						<path style="fill:#7193CF;" d="M409.837,304.317H284.875v-67.948h124.962V304.317z"/>
					</g>
				</g>
				<g>
					<rect x="287.04" y="252.917" style="fill:#7193CF;" width="119.24" height="46.451"/>
				</g>
				<g style="opacity:0.1;">
					<polygon points="386.676,296.275 323.232,296.275 351.277,252.917 405.264,249.97 					"/>
				</g>
			</g>
			<g>
				<g>
					<g>
						<polygon style="fill:#8CB5FF;" points="405.264,249.97 353.063,303.832 334.559,300.275 396.502,239.341 						"/>
					</g>
				</g>
				<g>
					<polygon style="fill:#FFFFFF;" points="316.344,239.341 252.475,300.275 332.75,302.44 396.502,239.341 					"/>
				</g>
			</g>
			<g>
				<rect x="70.919" y="288.233" style="fill:#8CB5FF;" width="338.918" height="16.084"/>
			</g>
			<g>
				<rect x="70.919" y="304.317" style="fill:#8CB5FF;" width="124.396" height="20.569"/>
			</g>
			<g>
				<rect x="195.315" y="304.317" style="fill:#ADCAFF;" width="217.616" height="20.569"/>
			</g>
		</g>
		<g>
			<g>
				<polygon style="fill:#EBAEAE;" points="274.727,254.409 275.345,261.797 321.254,261.605 319.898,248.858 				"/>
			</g>
			<g>
				<path style="fill:#EBAEAE;" d="M276.206,261.759c-2.269,0.78-9.805,2.541-18.452-3.289c-3.712-2.502,9.457-8.155,17.305-4.101
					C278.041,255.909,275.753,258.432,276.206,261.759z"/>
			</g>
		</g>
		<g>
			<path style="fill:#45C0D0;" d="M286.112,289.076h53.78c0,0,14.553-50.494,14.58-50.582c4.353-14.289-14.455-20.64-24.999-22.659
				c-8.595-1.646-21.862-2.373-24.891,8.279C304.582,224.116,286.112,289.076,286.112,289.076z"/>
		</g>
		<g>
			<g>
				<path style="fill:#EBAEAE;" d="M329.652,222.294L329.652,222.294c-2.809-0.511-4.671-3.202-4.16-6.011l2.123-11.667
					l10.172,1.851l-2.123,11.667C335.152,220.942,332.46,222.805,329.652,222.294z"/>
			</g>
			<g>
				<path style="fill:#FD6E90;" d="M338.296,203.667l-10.172-1.851l-2.372,13.034c4.674,0.08,9.686-2.504,11.387-6.755
					c0.386-0.965,0.669-1.967,0.895-2.99L338.296,203.667z"/>
			</g>
			<g>
				<path style="fill:#EBAEAE;" d="M324.096,211.334c-0.777-0.356-1.484-0.851-2.078-1.518c-1.907-2.144-2.373-5.331-2.198-8.099
					c0.093-1.46,3.807-21.35,3.785-21.354c0,0,20.194,3.675,20.194,3.675c-0.664,3.647-1.327,7.293-1.991,10.94
					c-0.632,3.471-0.773,7.213-2.092,10.512C337.476,211.091,329.485,213.801,324.096,211.334z"/>
			</g>
			<g>
				<path style="fill:#FD6E90;" d="M325.357,200.594c-0.032,0-0.065-0.005-0.098-0.015c-0.167-0.054-0.26-0.233-0.206-0.401
					l0.231-0.72l-1.63-0.204c-0.111-0.014-0.206-0.085-0.252-0.186c-0.046-0.102-0.034-0.22,0.029-0.312l3.34-4.827
					c0.1-0.145,0.299-0.18,0.443-0.081c0.145,0.1,0.181,0.299,0.08,0.443l-3.04,4.395l1.489,0.186
					c0.095,0.012,0.179,0.065,0.229,0.145c0.051,0.08,0.064,0.179,0.035,0.269l-0.349,1.086
					C325.617,200.507,325.492,200.594,325.357,200.594z"/>
			</g>
			<g>
				<path style="fill:#FD6E90;" d="M340.973,205.877c-1.648,0.373-3.332-0.958-3.815-2.578c-0.483-1.62-0.014-3.382,0.745-4.892
					c0.436-0.867,0.974-1.706,1.164-2.658c0.19-0.952-0.074-2.084-0.916-2.568c-0.417-0.24-0.924-0.294-1.33-0.553
					c-0.79-0.503-0.945-1.602-0.808-2.529c0.137-0.927,0.484-1.84,0.39-2.772c-0.205-2.039-2.458-3.304-4.506-3.362
					c-2.048-0.058-4.019,0.714-6.042,1.04c-2.31,0.373-4.848,0.104-6.684-1.347c-1.836-1.451-2.657-4.29-1.366-6.241
					c1.25-1.888,3.878-2.313,6.116-1.97c2.238,0.343,4.379,1.264,6.64,1.384c2.747,0.145,5.393-0.901,8.036-1.665
					c2.642-0.764,5.593-1.23,8.057-0.007c2.685,1.333,4.163,4.711,3.319,7.587c-0.641,2.185-2.443,4.327-1.632,6.454
					c0.519,1.361,1.976,2.16,2.607,3.473c2.173,4.519-3.401,3.853-5.395,5.187C342.924,199.618,344.903,204.988,340.973,205.877z"/>
			</g>
		</g>
		<g>
			<path style="fill:#EBAEAE;" d="M323.867,215.031l0.211,11.924l17.119-7.754c-4.02-1.639-8.217-2.722-11.576-3.365
				C327.858,215.497,325.896,215.201,323.867,215.031z"/>
		</g>
		<g>
			<path style="fill:#FFFFFF;" d="M325.611,313.711l-76.839,17.211c-16.382,3.669-31.942-8.792-31.942-25.579v-32.266
				l-18.816-14.856h100.364c21.807,0,39.485,17.678,39.485,39.485v0.706C337.863,305.75,332.772,312.107,325.611,313.711z"/>
		</g>
		<g>
			<path style="fill:#8CB5FF;" d="M216.83,290.95l-79.734-2.717v-16.686c0-7.526,6.101-13.626,13.627-13.626h51.065
				c8.37,0,15.156,6.786,15.156,15.156L216.83,290.95z"/>
		</g>
		<g>
			<g>
				<g>
					<path style="fill:#ADCAFF;" d="M198.665,304.317H73.703v-53.511h124.962V304.317z M80.817,297.203H191.55v-39.282H80.817
						V297.203z"/>
				</g>
			</g>
			<g>
				<rect x="73.703" y="267.354" style="fill:#147F7D;" width="119.239" height="32.014"/>
			</g>
			<g>
				<g>
					<path style="fill:#7193CF;" d="M195.571,304.317H70.609v-53.511h124.962V304.317z M77.724,297.203h110.733v-39.282H77.724
						V297.203z"/>
				</g>
			</g>
			<g>
				<rect x="70.609" y="267.354" style="fill:#7193CF;" width="119.239" height="32.014"/>
			</g>
		</g>
		<g>
			<g>
				<path style="fill:#EBAEAE;" d="M325.161,271.583l1.11,0.506c3.44,1.567,5.752-0.899,7.319-4.34l15.827-29.967
					c1.567-3.44-2.758-0.904-6.198-2.471c0,0-5.804-7.149-7.371-3.709l-12.218,31.61
					C322.064,266.653,321.721,270.017,325.161,271.583z"/>
			</g>
			<g>
				<polygon style="fill:#EBAEAE;" points="282.342,264.811 282.961,272.198 328.869,272.007 327.514,259.26 				"/>
			</g>
			<g>
				<path style="fill:#EBAEAE;" d="M283.822,272.16c-2.269,0.78-9.805,2.541-18.452-3.289c-3.712-2.502,9.457-8.155,17.305-4.101
					C285.656,266.311,283.369,268.834,283.822,272.16z"/>
			</g>
			<g>
				<polygon style="fill:#45C0D0;" points="326.612,248.485 342.507,254.906 353.551,235.705 334.609,223.235 				"/>
			</g>
		</g>
		<g>
			<g>
				<path style="fill:#45C0D0;" d="M226.403,230.764l-1.012,0.255c-3.137,0.79-4.702-1.651-5.489-4.799l-8.69-27.76
					c-0.787-3.148,1.118-6.341,4.255-7.131l1.013-0.255c3.137-0.79,6.318,1.122,7.105,4.27l5.399,28.589
					C229.771,227.081,229.54,229.975,226.403,230.764z"/>
			</g>
			<g>
				<polygon style="fill:#45C0D0;" points="260.634,239.758 257.788,245.446 223.367,231.056 226.544,220.878 				"/>
			</g>
			<g>
				<path style="fill:#EBAEAE;" d="M257.116,245.14c-0.139,0.272,1.623,1.957,1.849,2.169c1.105,1.031,2.539,1.658,3.996,1.999
					c2.043,0.479,4.34,0.63,6.422,0.347c1.051-0.143,2.088-0.395,3.081-0.768c0.514-0.193,1.017-0.418,1.503-0.674
					c0.004-0.002,0.009-0.005,0.013-0.007c0.61-0.327,0.668-1.188,0.143-1.64c-0.257-0.221-0.472-0.414-0.541-0.467
					c-0.918-0.694-1.804-1.397-2.78-2.001c-2.917-1.805-6.719-5.326-10.417-4.479C258.964,242.124,258.537,242.635,257.116,245.14z"
					/>
			</g>
		</g>
	</g>
</g>
<g id="DESIGNED_BY_FREEPIK">
	<g>
		<g id="XMLID_1_">
			<g id="XMLID_20_">
				<g id="XMLID_28_">
					<g>
						<g>
							<g>
								<g>
									<g>
										<g>
											<g>
												<g>
													<g>
														<g>
															<g>
																<path style="fill:#1D262D;" d="M260.104,465.465c-0.432,0.443-0.803,0.931-1.108,1.453l-0.465-0.241
																	c-0.067-0.298-0.349-0.503-0.659-0.466c-0.331,0.039-0.568,0.339-0.529,0.67c0.039,0.331,0.339,0.568,0.67,0.529
																	c0.066-0.008,0.127-0.026,0.184-0.052l0.451,0.234c-0.251,0.554-0.433,1.139-0.539,1.744l0.746,0.132
																	c0.23-1.306,0.85-2.507,1.792-3.473L260.104,465.465z"/>
															</g>
														</g>
													</g>
												</g>
											</g>
										</g>
									</g>
								</g>
							</g>
						</g>
					</g>
				</g>
				<g id="XMLID_27_">
					<g>
						<g>
							<g>
								<g>
									<g>
										<g>
											<g>
												<g>
													<g>
														<g>
															<g>
																<path style="fill:#1D262D;" d="M265.592,463.163c-0.171,0-0.341,0.006-0.51,0.017l-0.074-0.626
																	c0.188-0.149,0.296-0.389,0.266-0.645c-0.046-0.393-0.402-0.674-0.795-0.628c-0.393,0.046-0.674,0.402-0.628,0.795
																	c0.03,0.254,0.189,0.461,0.404,0.564l0.074,0.624c-0.714,0.116-1.403,0.332-2.06,0.646l0.327,0.684
																	c0.934-0.447,1.942-0.673,2.995-0.673c0.496,0,0.993,0.053,1.475,0.158l0.161-0.741
																	C266.692,463.222,266.142,463.163,265.592,463.163z"/>
															</g>
														</g>
													</g>
												</g>
											</g>
										</g>
									</g>
								</g>
							</g>
						</g>
					</g>
				</g>
				<g id="XMLID_26_">
					<g>
						<g>
							<g>
								<g>
									<g>
										<g>
											<g>
												<g>
													<g>
														<g>
															<g>
																<path style="fill:#1D262D;" d="M272.194,465.711c0.331-0.04,0.566-0.341,0.526-0.672
																	c-0.04-0.331-0.341-0.566-0.672-0.526c-0.309,0.038-0.535,0.304-0.53,0.609l-0.416,0.363
																	c-0.418-0.43-0.889-0.813-1.408-1.139l-0.404,0.641c1.134,0.715,2.021,1.726,2.563,2.925l0.69-0.313
																	c-0.251-0.554-0.568-1.072-0.942-1.545l0.402-0.351C272.065,465.716,272.129,465.719,272.194,465.711z"/>
															</g>
														</g>
													</g>
												</g>
											</g>
										</g>
									</g>
								</g>
							</g>
						</g>
					</g>
				</g>
				<g id="XMLID_25_">
					<g>
						<g>
							<g>
								<g>
									<g>
										<g>
											<g>
												<g>
													<g>
														<g>
															<g>
																<path style="fill:#1D262D;" d="M265.044,473.372c-0.386,0.023-0.775,0.035-1.157,0.035
																	c-0.88,0-1.733-0.061-2.478-0.179c-0.39-0.062-0.846-0.155-1.27-0.292c1.046,1.861,3.069,3.125,5.388,3.125
																	c2.855,0,5.262-1.916,5.95-4.504c-0.682,0.449-1.505,0.825-2.459,1.123
																	C267.839,473.047,266.463,473.286,265.044,473.372z"/>
															</g>
														</g>
													</g>
												</g>
											</g>
										</g>
									</g>
								</g>
							</g>
						</g>
					</g>
				</g>
				<g id="XMLID_21_">
					<g>
						<g>
							<g>
								<g>
									<g>
										<g>
											<g>
												<g>
													<g>
														<g>
															<g>
																<path style="fill:#1D262D;" d="M265.592,464.68c-3.352,0-6.08,2.666-6.08,5.943c0,0.426,0.046,0.849,0.137,1.261
																	c0.673,0.483,2.706,0.89,5.348,0.731c2.879-0.173,5.297-0.957,6.672-2.159c-0.006-0.195-0.021-0.39-0.045-0.582
																	C271.244,466.913,268.65,464.68,265.592,464.68z M263.432,471.194c-1.02,0-1.85-0.83-1.85-1.85
																	c0-1.02,0.83-1.85,1.85-1.85c1.02,0,1.85,0.83,1.85,1.85C265.282,470.365,264.452,471.194,263.432,471.194z
																	 M268.17,470.286c-0.75,0-1.36-0.61-1.36-1.36s0.61-1.361,1.36-1.361c0.75,0,1.361,0.61,1.361,1.361
																	S268.92,470.286,268.17,470.286z"/>
															</g>
														</g>
													</g>
												</g>
											</g>
										</g>
									</g>
								</g>
							</g>
						</g>
					</g>
				</g>
			</g>
			<g id="XMLID_18_">
				<g>
					<g>
						<g>
							<g>
								<g>
									<g>
										<g>
											<g>
												<g>
													<g>
														<g>
															<path style="fill:#1D262D;" d="M281.595,466.547c-0.295-0.116-0.805-0.309-1.382-0.237
																c-0.551,0.069-0.844,0.341-0.844,1.007v0.866h2.228v1.717h-2.228v5.455h-1.932v-5.455h-1.34v-1.717h1.34v-0.888
																c0-1.68,0.896-2.783,2.568-2.783c0.643,0,1.157,0.122,1.59,0.308L281.595,466.547z"/>
														</g>
													</g>
												</g>
											</g>
										</g>
									</g>
								</g>
							</g>
						</g>
					</g>
				</g>
			</g>
			<g id="XMLID_16_">
				<g>
					<g>
						<g>
							<g>
								<g>
									<g>
										<g>
											<g>
												<g>
													<g>
														<g>
															<path style="fill:#1D262D;" d="M286.298,469.879c-0.177-0.03-0.358-0.046-0.526-0.046
																c-0.895,0-1.51,0.548-1.51,1.614v3.908h-1.932v-7.172h1.873v0.785c0.451-0.673,1.14-0.977,2.021-0.977
																c0.414,0,0.848,0.128,1.094,0.337L286.298,469.879z"/>
														</g>
													</g>
												</g>
											</g>
										</g>
									</g>
								</g>
							</g>
						</g>
					</g>
				</g>
			</g>
			<g id="XMLID_13_">
				<g>
					<g>
						<g>
							<g>
								<g>
									<g>
										<g>
											<g>
												<g>
													<g>
														<g>
															<path style="fill:#1D262D;" d="M293.965,471.757c0,0.222-0.015,0.489-0.037,0.651h-5.085
																c0.207,1.036,0.933,1.488,1.843,1.488c0.622,0,1.295-0.252,1.813-0.688l1.133,1.243
																c-0.814,0.748-1.85,1.088-3.057,1.088c-2.198,0-3.723-1.495-3.723-3.753c0-2.258,1.48-3.797,3.627-3.797
																C292.544,467.99,293.958,469.522,293.965,471.757z M288.851,471.091h3.175c-0.177-0.918-0.733-1.436-1.562-1.436
																C289.554,469.655,289.021,470.203,288.851,471.091z"/>
														</g>
													</g>
												</g>
											</g>
										</g>
									</g>
								</g>
							</g>
						</g>
					</g>
				</g>
			</g>
			<g id="XMLID_10_">
				<g>
					<g>
						<g>
							<g>
								<g>
									<g>
										<g>
											<g>
												<g>
													<g>
														<g>
															<path style="fill:#1D262D;" d="M301.618,471.757c0,0.222-0.015,0.489-0.037,0.651h-5.085
																c0.207,1.036,0.932,1.488,1.843,1.488c0.622,0,1.295-0.252,1.814-0.688l1.132,1.243
																c-0.814,0.748-1.85,1.088-3.057,1.088c-2.198,0-3.723-1.495-3.723-3.753c0-2.258,1.48-3.797,3.627-3.797
																C300.197,467.99,301.611,469.522,301.618,471.757z M296.504,471.091h3.175c-0.178-0.918-0.733-1.436-1.562-1.436
																C297.207,469.655,296.674,470.203,296.504,471.091z"/>
														</g>
													</g>
												</g>
											</g>
										</g>
									</g>
								</g>
							</g>
						</g>
					</g>
				</g>
			</g>
			<g id="XMLID_7_">
				<g>
					<g>
						<g>
							<g>
								<g>
									<g>
										<g>
											<g>
												<g>
													<g>
														<g>
															<path style="fill:#1D262D;" d="M309.964,471.764c0,2.154-1.495,3.775-3.471,3.775c-0.962,0-1.643-0.378-2.109-0.933
																v3.708h-1.924v-10.133h1.887v0.792c0.466-0.585,1.155-0.984,2.139-0.984
																C308.469,467.99,309.964,469.61,309.964,471.764z M304.287,471.764c0,1.132,0.747,1.976,1.843,1.976
																c1.14,0,1.85-0.881,1.85-1.976c0-1.095-0.711-1.976-1.85-1.976C305.035,469.788,304.287,470.632,304.287,471.764z"/>
														</g>
													</g>
												</g>
											</g>
										</g>
									</g>
								</g>
							</g>
						</g>
					</g>
				</g>
			</g>
			<g id="XMLID_4_">
				<g>
					<g>
						<g>
							<g>
								<g>
									<g>
										<g>
											<g>
												<g>
													<g>
														<g>
															<path style="fill:#1D262D;" d="M313.067,465.836c0,0.696-0.54,1.229-1.236,1.229c-0.696,0-1.229-0.533-1.229-1.229
																c0-0.696,0.533-1.243,1.229-1.243C312.527,464.592,313.067,465.14,313.067,465.836z M312.809,475.354h-1.932v-7.172
																h1.932V475.354z"/>
														</g>
													</g>
												</g>
											</g>
										</g>
									</g>
								</g>
							</g>
						</g>
					</g>
				</g>
			</g>
			<g id="XMLID_2_">
				<g>
					<g>
						<g>
							<g>
								<g>
									<g>
										<g>
											<g>
												<g>
													<g>
														<g>
															<path style="fill:#1D262D;" d="M316.032,470.736l2.702-2.554h2.368l-3.479,3.375l3.501,3.797h-2.376l-2.716-2.901
																v2.901H314.1v-10.658h1.932V470.736z"/>
														</g>
													</g>
												</g>
											</g>
										</g>
									</g>
								</g>
							</g>
						</g>
					</g>
				</g>
			</g>
		</g>
		<g>
			<g>
				<g>
					<g>
						<g>
							<g>
								<g>
									<g>
										<g>
											<g>
												<g>
													<g>
														<g>
															<path style="fill:#1D262D;" d="M184.412,475.289v-1.055c-0.527,0.718-1.391,1.23-2.387,1.23
																c-1.846,0-3.149-1.406-3.149-3.706c0-2.256,1.289-3.721,3.149-3.721c0.952,0,1.816,0.469,2.387,1.245v-3.765h1.099
																v9.77H184.412z M184.412,473.37v-3.208c-0.395-0.615-1.245-1.143-2.124-1.143c-1.421,0-2.27,1.172-2.27,2.739
																c0,1.567,0.85,2.724,2.27,2.724C183.168,474.483,184.017,473.986,184.412,473.37z"/>
														</g>
													</g>
												</g>
											</g>
										</g>
									</g>
								</g>
							</g>
						</g>
					</g>
				</g>
			</g>
			<g>
				<g>
					<g>
						<g>
							<g>
								<g>
									<g>
										<g>
											<g>
												<g>
													<g>
														<g>
															<path style="fill:#1D262D;" d="M186.932,471.744c0-2.051,1.465-3.706,3.486-3.706c2.139,0,3.398,1.67,3.398,3.794
																v0.279h-5.727c0.088,1.333,1.025,2.446,2.549,2.446c0.805,0,1.626-0.322,2.182-0.894l0.527,0.718
																c-0.703,0.703-1.655,1.084-2.812,1.084C188.44,475.465,186.932,473.956,186.932,471.744z M190.403,468.947
																c-1.509,0-2.256,1.274-2.314,2.358h4.643C192.718,470.25,192.015,468.947,190.403,468.947z"/>
														</g>
													</g>
												</g>
											</g>
										</g>
									</g>
								</g>
							</g>
						</g>
					</g>
				</g>
			</g>
			<g>
				<g>
					<g>
						<g>
							<g>
								<g>
									<g>
										<g>
											<g>
												<g>
													<g>
														<g>
															<path style="fill:#1D262D;" d="M194.607,474.351l0.571-0.791c0.469,0.542,1.362,1.011,2.329,1.011
																c1.084,0,1.67-0.513,1.67-1.216c0-1.714-4.38-0.659-4.38-3.281c0-1.098,0.952-2.036,2.636-2.036
																c1.201,0,2.051,0.454,2.622,1.026l-0.513,0.762c-0.424-0.513-1.201-0.894-2.109-0.894
																c-0.967,0-1.567,0.483-1.567,1.113c0,1.552,4.38,0.527,4.38,3.281c0,1.187-0.952,2.138-2.783,2.138
																C196.306,475.465,195.325,475.113,194.607,474.351z"/>
														</g>
													</g>
												</g>
											</g>
										</g>
									</g>
								</g>
							</g>
						</g>
					</g>
				</g>
			</g>
			<g>
				<g>
					<g>
						<g>
							<g>
								<g>
									<g>
										<g>
											<g>
												<g>
													<g>
														<g>
															<path style="fill:#1D262D;" d="M201.477,466.471c0-0.41,0.337-0.747,0.732-0.747c0.41,0,0.747,0.337,0.747,0.747
																c0,0.41-0.337,0.732-0.747,0.732C201.814,467.203,201.477,466.881,201.477,466.471z M201.667,475.289v-7.075h1.099
																v7.075H201.667z"/>
														</g>
													</g>
												</g>
											</g>
										</g>
									</g>
								</g>
							</g>
						</g>
					</g>
				</g>
			</g>
			<g>
				<g>
					<g>
						<g>
							<g>
								<g>
									<g>
										<g>
											<g>
												<g>
													<g>
														<g>
															<path style="fill:#1D262D;" d="M204.582,477.105l0.556-0.82c0.586,0.703,1.289,0.967,2.3,0.967
																c1.172,0,2.27-0.571,2.27-2.124v-1.011c-0.513,0.718-1.377,1.26-2.373,1.26c-1.845,0-3.149-1.377-3.149-3.662
																c0-2.27,1.289-3.677,3.149-3.677c0.952,0,1.802,0.469,2.373,1.245v-1.069h1.098v6.87
																c0,2.344-1.641,3.076-3.369,3.076C206.237,478.16,205.417,477.926,204.582,477.105z M209.709,473.253v-3.091
																c-0.381-0.615-1.23-1.143-2.109-1.143c-1.421,0-2.27,1.128-2.27,2.695c0,1.553,0.849,2.695,2.27,2.695
																C208.478,474.41,209.328,473.868,209.709,473.253z"/>
														</g>
													</g>
												</g>
											</g>
										</g>
									</g>
								</g>
							</g>
						</g>
					</g>
				</g>
			</g>
			<g>
				<g>
					<g>
						<g>
							<g>
								<g>
									<g>
										<g>
											<g>
												<g>
													<g>
														<g>
															<path style="fill:#1D262D;" d="M217.413,475.289v-4.629c0-1.245-0.63-1.641-1.582-1.641
																c-0.865,0-1.685,0.527-2.095,1.099v5.17h-1.099v-7.075h1.099v1.025c0.498-0.586,1.465-1.201,2.519-1.201
																c1.48,0,2.256,0.747,2.256,2.285v4.966H217.413z"/>
														</g>
													</g>
												</g>
											</g>
										</g>
									</g>
								</g>
							</g>
						</g>
					</g>
				</g>
			</g>
			<g>
				<g>
					<g>
						<g>
							<g>
								<g>
									<g>
										<g>
											<g>
												<g>
													<g>
														<g>
															<path style="fill:#1D262D;" d="M219.932,471.744c0-2.051,1.465-3.706,3.486-3.706c2.139,0,3.398,1.67,3.398,3.794
																v0.279h-5.727c0.088,1.333,1.025,2.446,2.549,2.446c0.806,0,1.626-0.322,2.183-0.894l0.527,0.718
																c-0.703,0.703-1.655,1.084-2.812,1.084C221.441,475.465,219.932,473.956,219.932,471.744z M223.404,468.947
																c-1.509,0-2.256,1.274-2.314,2.358h4.643C225.718,470.25,225.015,468.947,223.404,468.947z"/>
														</g>
													</g>
												</g>
											</g>
										</g>
									</g>
								</g>
							</g>
						</g>
					</g>
				</g>
			</g>
			<g>
				<g>
					<g>
						<g>
							<g>
								<g>
									<g>
										<g>
											<g>
												<g>
													<g>
														<g>
															<path style="fill:#1D262D;" d="M233.35,475.289v-1.055c-0.527,0.718-1.392,1.23-2.388,1.23
																c-1.846,0-3.149-1.406-3.149-3.706c0-2.256,1.289-3.721,3.149-3.721c0.952,0,1.817,0.469,2.388,1.245v-3.765h1.098
																v9.77H233.35z M233.35,473.37v-3.208c-0.396-0.615-1.245-1.143-2.124-1.143c-1.421,0-2.27,1.172-2.27,2.739
																c0,1.567,0.849,2.724,2.27,2.724C232.105,474.483,232.954,473.986,233.35,473.37z"/>
														</g>
													</g>
												</g>
											</g>
										</g>
									</g>
								</g>
							</g>
						</g>
					</g>
				</g>
			</g>
			<g>
				<g>
					<g>
						<g>
							<g>
								<g>
									<g>
										<g>
											<g>
												<g>
													<g>
														<g>
															<path style="fill:#1D262D;" d="M239.692,475.289v-9.77h1.098v3.765c0.572-0.776,1.421-1.245,2.388-1.245
																c1.845,0,3.149,1.465,3.149,3.721c0,2.299-1.304,3.706-3.149,3.706c-0.996,0-1.86-0.513-2.388-1.23v1.055H239.692z
																 M242.9,474.483c1.436,0,2.285-1.157,2.285-2.724c0-1.568-0.85-2.739-2.285-2.739c-0.864,0-1.728,0.527-2.109,1.143
																v3.208C241.171,473.986,242.036,474.483,242.9,474.483z"/>
														</g>
													</g>
												</g>
											</g>
										</g>
									</g>
								</g>
							</g>
						</g>
					</g>
				</g>
			</g>
			<g>
				<g>
					<g>
						<g>
							<g>
								<g>
									<g>
										<g>
											<g>
												<g>
													<g>
														<g>
															<path style="fill:#1D262D;" d="M247.528,477.061c0.161,0.073,0.425,0.117,0.601,0.117
																c0.483,0,0.805-0.161,1.055-0.747l0.469-1.069l-2.959-7.148h1.187l2.358,5.8l2.344-5.8h1.201l-3.545,8.51
																c-0.425,1.025-1.143,1.421-2.08,1.435c-0.234,0-0.601-0.044-0.806-0.103L247.528,477.061z"/>
														</g>
													</g>
												</g>
											</g>
										</g>
									</g>
								</g>
							</g>
						</g>
					</g>
				</g>
			</g>
		</g>
	</g>
</g>
</svg>
